#N canvas 663 95 544 637 10;
#X obj 63 63 del 200;
#X obj 63 15 loadbang;
#X obj 332 57 del 100;
#X msg 332 111 \; pd dsp 1;
#X obj 63 489 readsf~;
#X obj 63 587 dac~;
#X msg 193 432 0;
#X floatatom 84 519 5 0 0 0 - - -, f 5;
#X obj 63 541 *~ 1;
#X msg 76 432 open snd.wav \, 1;
#X obj 63 288 textfile;
#X obj 63 130 t b a;
#X msg 63 96 read offset.txt;
#X obj 42 15 bng 15 250 50 0 empty empty empty 17 7 0 10 -262144 -1
-1;
#X msg 63 402 open snd.wav 0;
#X msg 89 231 rewind;
#X obj 63 167 t b b;
#X msg 63 332 set open snd.wav \$1;
#X msg 35 432 1;
#X obj 35 367 t b b a;
#X connect 0 0 12 0;
#X connect 1 0 2 0;
#X connect 1 0 0 0;
#X connect 2 0 3 0;
#X connect 4 0 8 0;
#X connect 4 1 9 0;
#X connect 6 0 4 0;
#X connect 7 0 8 1;
#X connect 8 0 5 0;
#X connect 8 0 5 1;
#X connect 9 0 4 0;
#X connect 10 0 17 0;
#X connect 11 0 16 0;
#X connect 11 1 10 0;
#X connect 12 0 11 0;
#X connect 13 0 0 0;
#X connect 14 0 4 0;
#X connect 15 0 10 0;
#X connect 16 0 10 0;
#X connect 16 1 15 0;
#X connect 17 0 19 0;
#X connect 18 0 4 0;
#X connect 19 0 18 0;
#X connect 19 1 14 0;
#X connect 19 2 14 0;
