#N canvas 663 95 523 474 10;
#X msg 244 190 open snd.wav \, 1;
#X obj 244 137 del 200;
#X obj 243 31 loadbang;
#X obj 395 136 del 100;
#X msg 395 190 \; pd dsp 1;
#X obj 244 248 readsf~;
#X obj 248 379 dac~;
#X msg 352 190 0;
#X obj 65 219 textfile;
#X obj 66 389 print list;
#X msg 103 181 rewind;
#X obj 65 181 t b b;
#X obj 65 131 t b a;
#X floatatom 265 278 5 0 0 0 - - -, f 5;
#X obj 244 300 *~ 1;
#X obj 65 72 metro 5000;
#X msg 65 97 read level.txt;
#X connect 0 0 5 0;
#X connect 1 0 0 0;
#X connect 2 0 3 0;
#X connect 2 0 1 0;
#X connect 2 0 15 0;
#X connect 3 0 4 0;
#X connect 5 0 14 0;
#X connect 5 1 0 0;
#X connect 7 0 5 0;
#X connect 8 0 9 0;
#X connect 8 0 13 0;
#X connect 10 0 8 0;
#X connect 11 0 8 0;
#X connect 11 1 10 0;
#X connect 12 0 11 0;
#X connect 12 1 8 0;
#X connect 13 0 14 1;
#X connect 14 0 6 0;
#X connect 14 0 6 1;
#X connect 15 0 16 0;
#X connect 16 0 12 0;
