#N canvas 447 29 544 637 10;
#X obj 63 63 del 200;
#X obj 63 15 loadbang;
#X obj 332 57 del 100;
#X msg 332 111 \; pd dsp 1;
#X obj 63 533 dac~;
#X msg 193 432 0;
#X msg 76 432 open snd.wav \, 1;
#X obj 63 225 textfile;
#X obj 63 130 t b a;
#X msg 63 96 read offset.txt;
#X obj 42 15 bng 15 250 50 0 empty empty empty 17 7 0 10 -262144 -1
-1;
#X msg 63 402 open snd.wav 144000;
#X msg 89 194 rewind;
#X obj 63 167 t b b;
#X msg 63 332 set open snd.wav \$1;
#X msg 35 432 1;
#X obj 35 367 t b b a;
#X obj 63 279 * 48000;
#X obj 63 489 readsf~ 2;
#X connect 0 0 9 0;
#X connect 1 0 2 0;
#X connect 1 0 0 0;
#X connect 2 0 3 0;
#X connect 5 0 18 0;
#X connect 6 0 18 0;
#X connect 7 0 17 0;
#X connect 8 0 13 0;
#X connect 8 1 7 0;
#X connect 9 0 8 0;
#X connect 10 0 0 0;
#X connect 11 0 18 0;
#X connect 12 0 7 0;
#X connect 13 0 7 0;
#X connect 13 1 12 0;
#X connect 14 0 16 0;
#X connect 15 0 18 0;
#X connect 16 0 15 0;
#X connect 16 1 11 0;
#X connect 16 2 11 0;
#X connect 17 0 14 0;
#X connect 18 0 4 0;
#X connect 18 1 4 1;
#X connect 18 2 6 0;
